Coordinates
datacolumns 6
datarows 178
range 0 1.77
inDegrees=yes
Units are S.I. units (second, meters, Newtons, ...)
If the header above contains a line with 'inDegrees', this indicates whether rotational values are in degrees (yes) or radians (no).
endheader
time	foot_tx	hip_flexion_r	knee_angle_r	ankle_angle_r	lumbar
0	0.24463533	60.11072227	-86.76730017	5.90925189	-37.39677495
0.01	0.2446011	60.26409576	-86.73416113	5.89005666	-37.53158387
0.02	0.24455703	60.49110165	-86.70420303	5.8665688	-37.61330093
0.03	0.24451251	60.67031907	-86.66617442	5.84452343	-37.77182285
0.04	0.24445826	60.91478726	-86.63065162	5.8186706	-37.88936676
0.05	0.2444014	61.12123132	-86.58934969	5.79471368	-38.07654744
0.06	0.24433442	61.34455558	-86.54743924	5.77040839	-38.27544352
0.07	0.24426322	61.58353434	-86.50562418	5.74574596	-38.48888222
0.08	0.24418575	61.83762269	-86.46464443	5.72152914	-38.71761811
0.09	0.24410677	62.1041789	-86.42442813	5.69799256	-38.96473179
0.1	0.24402339	62.38331537	-86.38611688	5.67616057	-39.23016725
0.11	0.24393758	62.67394119	-86.3500734	5.65656055	-39.51499305
0.12	0.24385882	62.97706251	-86.31601494	5.6387785	-39.81805533
0.13	0.24377096	63.24492226	-86.28389483	5.62945423	-40.18818151
0.14	0.24369865	63.5824843	-86.25753288	5.61835474	-40.51533326
0.15	0.24362767	63.93200307	-86.23555404	5.61260535	-40.85812505
0.16	0.24356116	64.29391935	-86.21804615	5.61281885	-41.21462553
0.17	0.24349929	64.66857979	-86.20536645	5.61988768	-41.58282775
0.18	0.24344209	65.05650717	-86.19771836	5.63442515	-41.96079814
0.19	0.24338989	65.45862344	-86.19504245	5.65660143	-42.34662757
0.2	0.24334345	65.87660455	-86.19684004	5.68593184	-42.73829
0.21	0.24330199	66.3573578	-86.20573058	5.71849365	-43.08657694
0.22	0.24327063	66.86250591	-86.21785453	5.75577894	-43.4324742
0.23	0.24324812	67.40662784	-86.23392558	5.79675017	-43.76001322
0.24	0.24323154	67.99126418	-86.25418682	5.84233331	-44.06541765
0.25	0.2432297	68.60327186	-86.27745446	5.89415068	-44.3597517
0.26	0.24323397	69.24151197	-86.3046033	5.95471571	-44.64098145
0.27	0.24324451	69.90213964	-86.3354784	6.02529036	-44.91156356
0.28	0.24326052	70.59083498	-86.3702232	6.10581807	-45.16497539
0.29	0.24327729	71.30930147	-86.41050382	6.19763378	-45.39862525
0.3	0.24328471	72.06690261	-86.4574961	6.30133466	-45.60138316
0.31	0.24328832	72.86679593	-86.5113019	6.41697352	-45.76787417
0.32	0.24328224	73.70819851	-86.57244934	6.54627609	-45.89535286
0.33	0.24326354	74.5881552	-86.63926225	6.68989622	-45.98288139
0.34	0.24322861	75.49948977	-86.71141179	6.8500808	-46.03223391
0.35	0.24318057	76.4307073	-86.78316764	7.02604819	-46.05071251
0.36	0.24312218	77.37374297	-86.85037857	7.21777647	-46.04091421
0.37	0.24305449	78.31837654	-86.90882545	7.425427	-46.00737479
0.38	0.24298796	79.25204592	-86.95245428	7.64761239	-45.95813162
0.39	0.24292649	80.1669631	-86.9763843	7.88341991	-45.89576862
0.4	0.24287565	81.05709385	-86.9787521	8.1325264	-45.82058422
0.41	0.24283869	81.92388482	-86.95693332	8.39366023	-45.72520278
0.42	0.24281631	82.76466095	-86.91179584	8.66699398	-45.60584886
0.43	0.24280932	83.5805365	-86.84416167	8.95152505	-45.45449744
0.44	0.242819	84.36931001	-86.75965627	9.24787205	-45.26605285
0.45	0.24284987	85.11789963	-86.65947944	9.55437097	-45.04787923
0.46	0.24290945	85.81649065	-86.54832746	9.86996318	-44.80322981
0.47	0.24300148	86.446406	-86.4306128	10.1942386	-44.54520262
0.48	0.24313053	86.98293501	-86.30686042	10.52540571	-44.29397506
0.49	0.24329187	87.40573117	-86.17884078	10.86293625	-44.06519551
0.5	0.24347815	87.70161436	-86.04477388	11.20461983	-43.86857085
0.51	0.24368223	87.86497908	-85.90114013	11.54807128	-43.70568973
0.52	0.24389247	87.90177101	-85.74272646	11.89000359	-43.56980412
0.53	0.24409946	87.81657254	-85.56275011	12.2277281	-43.45558681
0.54	0.24430075	87.66919112	-85.35204409	12.55184625	-43.30136441
0.55	0.2444854	87.38870199	-85.10417011	12.86864182	-43.18996883
0.56	0.24465499	87.06010444	-84.81131406	13.16664531	-43.03283376
0.57	0.24480643	86.67279893	-84.46857537	13.44564069	-42.8487866
0.58	0.24494365	86.23447399	-84.07063656	13.70216389	-42.63746353
0.59	0.2450662	85.75509886	-83.61557446	13.9343625	-42.39542031
0.6	0.24517982	85.24594782	-83.10205253	14.13959875	-42.11780778
0.61	0.24528249	84.71191167	-82.5311235	14.31772688	-41.8059231
0.62	0.24538167	84.16612613	-81.90280591	14.46630828	-41.45193322
0.63	0.24547562	83.61389595	-81.22107586	14.58634642	-41.05433103
0.64	0.24556948	83.08056706	-80.48707146	14.67538663	-40.58971472
0.65	0.2456474	82.51770844	-79.70708386	14.74228317	-40.11390696
0.66	0.24573278	81.9044693	-78.8764338	14.78452207	-39.65560316
0.67	0.24582043	81.3067647	-77.99916823	14.79773232	-39.14061309
0.68	0.24589472	80.62525999	-77.07911185	14.79446197	-38.6798532
0.69	0.24597319	79.90053718	-76.1145379	14.7678451	-38.22942109
0.7	0.24605213	79.10381444	-75.10824171	14.72183969	-37.82166658
0.71	0.24613173	78.23021667	-74.0624566	14.65762642	-37.46262513
0.72	0.24621208	77.28240719	-72.98138845	14.57673659	-37.15037619
0.73	0.24629428	76.2746973	-71.87092304	14.4804626	-36.86984247
0.74	0.24637668	75.22925431	-70.7388194	14.3706711	-36.59808007
0.75	0.24645935	74.17024049	-69.59036129	14.24780764	-36.3104425
0.76	0.24654503	73.10175885	-68.43067063	14.11380193	-36.00344044
0.77	0.24663243	72.03035097	-67.26244187	13.96969808	-35.67211853
0.78	0.24672288	70.95220496	-66.08729556	13.81675953	-35.32264258
0.79	0.24682054	69.85922651	-64.90638828	13.65611221	-34.96602254
0.8	0.24692928	68.74780118	-63.72041874	13.48828772	-34.60842539
0.81	0.24705281	67.61707931	-62.52943216	13.31298055	-34.25324766
0.82	0.24719793	66.46028245	-61.3355838	13.13131359	-33.9096893
0.83	0.24736473	65.28066116	-60.13960106	12.94338627	-33.57560734
0.84	0.24754926	64.07828014	-58.94380709	12.75089292	-33.25182464
0.85	0.24775656	62.86564897	-57.74755384	12.55202954	-32.92494933
0.86	0.24796904	61.63728409	-56.55451151	12.35099215	-32.60126377
0.87	0.24818182	60.39476893	-55.36443225	12.14813081	-32.27892993
0.88	0.24838752	59.13637288	-54.17729998	11.9444578	-31.95967627
0.89	0.24857766	57.8733629	-52.99224455	11.73945561	-31.63118944
0.9	0.24875492	56.59849042	-51.80903237	11.53373139	-31.30149198
0.91	0.24892039	55.31259388	-50.62554954	11.32622104	-30.9699706
0.92	0.24908051	54.01422798	-49.43967801	11.11560465	-30.63876611
0.93	0.24924372	52.70724597	-48.24977841	10.90017421	-30.30445536
0.94	0.24941513	51.39034951	-47.05460478	10.67901729	-29.96968405
0.95	0.24959742	50.06641563	-45.85358774	10.4513512	-29.63267028
0.96	0.24978914	48.7398643	-44.64688458	10.21701913	-29.29026379
0.97	0.24998443	47.41173168	-43.43497837	9.97670381	-28.94152971
0.98	0.25017637	46.0847454	-42.21922701	9.73168877	-28.58455242
0.99	0.25036138	44.76324466	-41.00068895	9.48276688	-28.21491579
1	0.25053609	43.44751486	-39.78105096	9.23132693	-27.8330331
1.01	0.2507008	42.13899412	-38.56137674	8.9776207	-27.43871444
1.02	0.25085572	40.83831018	-37.34339909	8.72210831	-27.03403046
1.03	0.25100609	39.55780574	-36.1275246	8.46283803	-26.60780043
1.04	0.2511432	38.28900133	-34.91736668	8.20265373	-26.17156788
1.05	0.25126764	37.04339467	-33.71539698	7.94159288	-25.71418152
1.06	0.25137675	35.82615468	-32.52514172	7.68135461	-25.23107661
1.07	0.2514672	34.63884949	-31.35091992	7.4249944	-24.7201314
1.08	0.25154151	33.48590404	-30.19506846	7.17367577	-24.17651815
1.09	0.25159966	32.36407312	-29.06030661	6.92939963	-23.60539993
1.1	0.25164172	31.27033293	-27.94965427	6.6942544	-23.01153348
1.11	0.25167516	30.21431047	-26.86443752	6.46746582	-22.38726223
1.12	0.25170066	29.191344	-25.80746448	6.25064752	-21.74141021
1.13	0.25171786	28.20512983	-24.78402131	6.04613993	-21.0749417
1.14	0.25173911	27.26085491	-23.79218509	5.85124143	-20.38569818
1.15	0.25175397	26.3544141	-22.83906205	5.67060161	-19.68259534
1.16	0.25177086	25.48910725	-21.92572019	5.50356418	-18.96675428
1.17	0.25178738	24.66175806	-21.05193081	5.35014584	-18.24266695
1.18	0.25180431	23.86956115	-20.218622	5.21059513	-17.51663103
1.19	0.25182616	23.11131873	-19.42431839	5.08371148	-16.79103329
1.2	0.25185453	22.38266857	-18.66713147	4.96842345	-16.07112472
1.21	0.25189542	21.71880439	-17.95235165	4.86440398	-15.3215366
1.22	0.25194767	21.01257836	-17.26299764	4.77080321	-14.65340671
1.23	0.25201713	20.38498642	-16.61504615	4.68642403	-13.94169354
1.24	0.25210066	19.77207336	-15.99807284	4.61090283	-13.25203233
1.25	0.25219649	19.17525403	-15.4086799	4.54243325	-12.5818453
1.26	0.25229906	18.5971817	-14.84927574	4.48261825	-11.92938392
1.27	0.25240628	18.03961608	-14.31609278	4.42935308	-11.29166357
1.28	0.2525147	17.50325561	-13.80994624	4.38320107	-10.66886749
1.29	0.25262025	17.0249352	-13.33686453	4.34477437	-10.02324627
1.3	0.25272165	16.52252767	-12.88060483	4.3116354	-9.43939396
1.31	0.25281521	16.08578384	-12.4571121	4.28550027	-8.8259651
1.32	0.25290268	15.61937157	-12.04819005	4.26390185	-8.2796191
1.33	0.25298018	15.22676159	-11.67113798	4.24821713	-7.69492823
1.34	0.25305343	14.79421521	-11.30460796	4.23551017	-7.18715945
1.35	0.25311653	14.43810772	-10.96843002	4.22809032	-6.63581558
1.36	0.25317571	14.06397085	-10.64532618	4.22423924	-6.13319862
1.37	0.25323219	13.67064113	-10.33251847	4.22253769	-5.6804923
1.38	0.25328051	13.34059608	-10.04522219	4.22600993	-5.18877773
1.39	0.25332782	12.96588045	-9.76062448	4.23027632	-4.76684207
1.4	0.25336969	12.64180327	-9.49954173	4.23964408	-4.31919094
1.41	0.25340968	12.2886254	-9.2432656	4.24951549	-3.9260553
1.42	0.25344803	11.95485252	-9.00350417	4.26213818	-3.54125987
1.43	0.25348394	11.67522618	-8.78715991	4.2784056	-3.13075704
1.44	0.2535184	11.36191707	-8.57561522	4.29540321	-2.77999529
1.45	0.25355668	11.06690769	-8.37919301	4.31435525	-2.43854982
1.46	0.25359272	10.82326362	-8.20455692	4.33733983	-2.06924247
1.47	0.25362669	10.54170357	-8.02857432	4.35907393	-1.76001982
1.48	0.25365739	10.27405277	-7.86392659	4.38260263	-1.45768912
1.49	0.25367896	10.01622555	-7.70624159	4.40659121	-1.16317102
1.5	0.25368758	9.76497195	-7.55285043	4.4303219	-0.87729887
1.51	0.25368038	9.51776162	-7.40148446	4.45311849	-0.60037428
1.52	0.25365455	9.27302295	-7.25023681	4.47424093	-0.33228075
1.53	0.25360726	9.02973959	-7.0968199	4.49253645	-0.0727886
1.54	0.25354129	8.78845016	-6.93864323	4.50597983	0.17826892
1.55	0.25344187	8.54627479	-6.77402445	4.51540716	0.42403316
1.56	0.25331906	8.30649564	-6.60193602	4.51855526	0.66348625
1.57	0.25316068	8.06110419	-6.4190335	4.51590129	0.8958815
1.58	0.25296748	7.81774184	-6.22472485	4.50633559	1.12804236
1.59	0.25273412	7.53225815	-6.01222579	4.49000655	1.31628935
1.6	0.25246696	7.29439069	-5.79485362	4.46730366	1.55441322
1.61	0.25215589	7.00230656	-5.55801501	4.43865114	1.73691173
1.62	0.25180802	6.72717815	-5.31008493	4.40348373	1.94063295
1.63	0.25142249	6.44434946	-5.04966224	4.36307256	2.13889134
1.64	0.25099829	6.15486531	-4.77618924	4.31758544	2.3338591
1.65	0.25053987	5.8592263	-4.49291574	4.26856082	2.52433274
1.66	0.25005441	5.55812366	-4.20070674	4.21608357	2.71010602
1.67	0.24954444	5.25617717	-3.90398215	4.16203308	2.89329328
1.68	0.24902486	4.95285173	-3.60728163	4.10783944	3.07021443
1.69	0.24850558	4.65444845	-3.31570309	4.0548705	3.24276483
1.7	0.24799835	4.36423243	-3.03650018	4.00595599	3.40948664
1.71	0.24753139	4.08875449	-2.77387515	3.96134188	3.57472748
1.72	0.24711098	3.8325016	-2.53867473	3.92553391	3.73373647
1.73	0.24675849	3.59964099	-2.33573267	3.89953076	3.8860109
1.74	0.24648896	3.42260293	-2.17481815	3.88486823	4.05948949
1.75	0.2463074	3.260811	-2.0551819	3.88302821	4.20421432
1.76	0.24621361	3.12086901	-1.97783323	3.89361427	4.32431039
1.77	0.24620388	3.01038542	-1.94421565	3.91660241	4.42628148
